<svg width="131" height="70" viewBox="0 0 131 70" fill="none" xmlns="http://www.w3.org/2000/svg">
<path fill-rule="evenodd" clip-rule="evenodd" d="M18.9632 14.7602C11.4367 18.153 0.364677 24.9694 0.364677 34.584C0.364677 44.1986 11.4367 51.0047 18.9733 54.4078C32.983 60.7321 50.2849 63.0897 65.5101 63.0897C80.7354 63.0897 98.0271 60.7321 112.047 54.4078C119.573 51.015 130.645 44.1986 130.645 34.584C130.645 24.9694 119.573 18.1633 112.047 14.7602C98.0373 8.43587 80.7354 6.07834 65.5101 6.07834C50.2849 6.07834 32.983 8.43587 18.9733 14.7602H18.9632ZM0 34.584C0 53.68 29.3261 69.168 65.5 69.168C101.674 69.168 131 53.68 131 34.584C131 15.488 101.674 0 65.5 0C29.3261 0 0 15.4777 0 34.584Z" fill="white"/>
<path fill-rule="evenodd" clip-rule="evenodd" d="M120.293 43.44C118.581 43.5425 116.686 43.5117 114.843 43.5117C111.196 43.5117 108.38 42.9377 106.323 41.1337C104.368 39.4014 103.386 37.0951 103.386 34.1943C103.386 31.4883 104.257 29.2845 105.999 27.5727C108.066 25.5432 111.125 24.8769 115.106 24.8769C116.848 24.8769 118.489 24.8154 120.242 24.8974L120.161 29.387C118.955 29.3562 116.038 29.3357 114.741 29.3357C113.202 29.3357 111.945 29.7765 110.993 30.658C110.031 31.5395 109.545 32.667 109.545 34.0303C109.545 35.2603 109.859 36.2853 110.477 37.1054C111.368 38.2841 112.837 38.8684 114.873 38.8684C116.21 38.8684 119.006 38.9504 120.282 38.9094V43.44H120.293ZM40.7626 24.8257H40.1852V43.522H46.0099V31.806L54.8027 43.5117H61.1946V24.8257H54.8432V36.5724L46.0099 24.8257H40.7626ZM102.251 43.5322H85.2633V24.8359H102.059V29.2435H92.6277V31.9393H101.643V36.2136H92.6277L92.6075 38.8581H102.231L102.251 43.5322ZM83.3487 29.2435H76.8555V43.5322H69.491V29.2435H62.9978V24.8359H83.3386V29.2435H83.3487ZM37.9769 43.522H35.5153H30.3491C30.3491 38.0074 30.4504 24.8359 30.4504 24.8359H37.9769V43.5322V43.522ZM28.3535 37.5666C28.3535 39.1554 27.8368 40.4572 26.8137 41.4924C25.2537 43.0607 22.6605 43.5014 18.9732 43.5014H10.7578L10.8389 39.3604C13.1485 39.4629 15.4074 39.3604 17.636 39.3604C18.8314 39.3604 19.6721 39.2476 20.1786 39.0119C20.6851 38.7761 20.9384 38.4584 20.9384 38.0484C20.9384 37.5666 20.6041 37.2079 19.9254 36.9824C19.7025 36.9106 19.0036 36.7466 17.8082 36.5006C15.6809 36.0701 14.1716 35.5883 13.27 35.0553C11.6189 34.0713 10.7983 32.5748 10.7983 30.5658C10.7983 28.9257 11.4264 27.5932 12.6926 26.558C14.3742 25.1844 17.0384 24.8974 20.6953 24.8974L28.394 24.8564L28.3231 29.0487C26.5503 29.059 23.2784 28.9975 21.374 28.9975C20.3711 28.9975 19.662 29.0487 19.2568 29.1615C18.5578 29.346 18.2134 29.7048 18.2134 30.2583C18.2134 30.7195 18.568 31.0578 19.2872 31.273C19.6316 31.3755 20.0773 31.4678 20.6041 31.5703C22.3869 31.8983 23.5519 32.1648 24.1192 32.3493C25.4259 32.7593 26.4085 33.3333 27.0872 34.0611C27.928 34.9528 28.3535 36.1316 28.3535 37.5871V37.5666Z" fill="white"/>
</svg>
