<svg width="131" height="70" fill="none" xmlns="http://www.w3.org/2000/svg"><path fill-rule="evenodd" clip-rule="evenodd" d="M18.963 14.76C11.437 18.153.365 24.97.365 34.584c0 9.615 11.072 16.42 18.608 19.824 14.01 6.324 31.312 8.682 46.537 8.682 15.225 0 32.517-2.358 46.537-8.682 7.526-3.393 18.598-10.21 18.598-19.824 0-9.615-11.072-16.42-18.598-19.824-14.01-6.324-31.312-8.682-46.537-8.682-15.225 0-32.527 2.358-46.537 8.682h-.01ZM0 34.584C0 53.68 29.326 69.168 65.5 69.168S131 53.68 131 34.584C131 15.488 101.674 0 65.5 0S0 15.478 0 34.584Z" fill="#fff"/><path fill-rule="evenodd" clip-rule="evenodd" d="M120.293 43.44c-1.712.102-3.607.072-5.45.072-3.647 0-6.463-.574-8.52-2.378-1.955-1.733-2.937-4.039-2.937-6.94 0-2.706.871-4.91 2.613-6.621 2.067-2.03 5.126-2.696 9.107-2.696 1.742 0 3.383-.062 5.136.02l-.081 4.49c-1.206-.03-4.123-.051-5.42-.051-1.539 0-2.796.44-3.748 1.322-.962.881-1.448 2.009-1.448 3.372 0 1.23.314 2.255.932 3.075.891 1.18 2.36 1.763 4.396 1.763 1.337 0 4.133.082 5.409.041v4.531h.011Zm-79.53-18.614h-.578v18.696h5.825V31.806l8.793 11.706h6.392V24.826h-6.352v11.746L46.01 24.826h-5.247Zm61.488 18.706H85.263V24.836h16.796v4.408h-9.431v2.695h9.015v4.275h-9.015l-.02 2.644h9.623l.02 4.674ZM83.349 29.244h-6.493v14.288H69.49V29.244h-6.493v-4.408h20.34v4.408h.01ZM37.977 43.522h-7.628c0-5.515.101-18.686.101-18.686h7.527v18.696-.01Zm-9.623-5.955c0 1.588-.517 2.89-1.54 3.925-1.56 1.569-4.154 2.01-7.84 2.01h-8.216l.08-4.142c2.31.103 4.57 0 6.798 0 1.195 0 2.036-.112 2.543-.348.506-.236.76-.554.76-.964 0-.481-.335-.84-1.014-1.066-.223-.071-.921-.235-2.117-.481-2.127-.43-3.636-.913-4.538-1.446-1.651-.984-2.472-2.48-2.472-4.49 0-1.64.628-2.972 1.895-4.007 1.681-1.374 4.345-1.66 8.002-1.66l7.699-.042-.07 4.193c-1.774.01-5.046-.052-6.95-.052-1.003 0-1.712.052-2.117.165-.7.184-1.044.543-1.044 1.096 0 .462.355.8 1.074 1.015.345.102.79.195 1.317.297 1.783.328 2.948.595 3.515.78 1.307.41 2.29.983 2.968 1.711.841.892 1.267 2.07 1.267 3.526v-.02Z" fill="#fff"/></svg>