<svg xmlns="http://www.w3.org/2000/svg" width="512" height="418" fill="none"><g fill="#E7E7E7" clip-path="url(#a)"><path d="M492.584 314.186c-1.311 0-2.934-.062-3.933-.374-.999-.312-4.495-.374-8.491-.187-3.996.187-8.428.686-11.487 1.683-4.62 1.559-8.241.25-11.488 0-1.061-.062-2.06 0-3.059.187-.999.25-2.622.749-4.495 1.497-1.873.748-4.058 1.683-6.243 2.868-4.37 2.432-8.803 5.799-11.3 10.911-.437.873-1.436 1.684-2.747 2.37-1.311.686-2.872 1.184-4.495 1.621-3.184.81-6.306 1.184-7.305 1.247 4.121-4.427 8.304-9.415 11.987-14.403 3.746-5.051 7.055-10.101 9.864-14.715l-5.369-2.556c-3.995 7.108-9.364 14.901-13.984 20.326-.125-.873-.25-1.933-.375-2.931-.125-.997-.25-1.932-.312-2.556v-.062c.312-.998.749-2.12 1.311-3.43.312-.623.687-1.309 1.061-1.995.375-.686.874-1.434 1.374-2.12.686-.873 1.186-1.808 1.561-2.618.374-.873.686-1.684.936-2.432.437-1.559.624-2.931.812-3.991.124-.561.187-1.06.249-1.558.437-2.557.562-4.24.625-5.737 0-1.558-.25-2.93-.687-4.801-.562-2.057-2.435-4.863-4.807-7.669a78.112 78.112 0 0 0-3.746-4.177 105.355 105.355 0 0 0-3.746-3.741 241.155 241.155 0 0 0-3.871-3.741c-1.373-1.31-2.747-2.619-4.058-3.741-2.56-2.307-4.495-3.991-4.495-3.991s-.312.998-.375 2.619c-.062.81-.124 1.808 0 2.93 0 1.123.188 2.307.437 3.617 1.062 5.237.5 10.225.188 13.405a15.79 15.79 0 0 0 .187 3.429c.125 1.06.375 2.245.5 3.741.062.749.187 1.559.187 2.494v3.056c0 .873.125 1.87.437 3.055.312 1.122.811 2.369 1.436 3.616 1.248 2.494 3.121 5.113 5.681 7.108 3.683 2.868 5.806 5.175 6.93 6.796 0 0 0 .063.062.187 0 .125.063.25.188.499.125.374.312.998.437 1.621.312 1.372.562 3.18.249 4.926-.874.935-1.685 1.871-2.434 2.619-.75.748-1.436 1.434-1.998 1.933-.25.249-.812.81-1.499 1.558-.686.749-1.56 1.746-2.622 2.806-2.06 2.245-4.807 4.988-7.679 7.732a137.435 137.435 0 0 1-8.99 7.669c-1.436 1.122-2.747 2.12-3.995 2.93-1.187.811-2.248 1.497-3.06 1.871-2.06 1.122-5.244 3.429-8.99 5.986.25-1.621.687-3.928 1.311-5.612.999 0 2.061-.312 3.122-.686a17.29 17.29 0 0 0 2.997-1.621c.936-.623 1.748-1.309 2.497-1.933.687-.623 1.248-1.184 1.561-1.559.437-.498 1.061-1.371 1.685-2.431a45.683 45.683 0 0 0 1.873-3.492c1.124-2.432 1.936-4.863 1.748-5.736-.249-.873-1.498-3.617-2.809-6.609-1.311-2.993-2.622-6.173-2.747-8.044-.063-1.87-.25-3.554-.312-5.175a61.63 61.63 0 0 1-.188-4.801c0-1.621-.312-3.429-.686-4.738-.188-.686-.375-1.247-.5-1.684-.125-.436-.249-.623-.249-.623s-.063.124-.25.374c-.125.249-.375.561-.625.997-.561.811-1.311 1.996-2.185 3.118-.437.561-.936 1.247-1.436 1.808a42.222 42.222 0 0 1-1.498 1.746c-.499.561-.999 1.06-1.498 1.559-.5.498-.937.873-1.374 1.184-1.748 1.31-3.933 2.619-5.868 3.928-.5.312-.937.686-1.311.998-.437.374-.812.686-1.124 1.06-.624.748-1.061 1.496-1.249 2.369-.125.811-.125 1.746 0 2.744.063.997.25 1.995.437 3.055.312 2.057.562 4.177 0 5.986-.499 1.808.437 5.175 1.811 8.542 1.373 3.367 3.184 6.734 4.682 8.292.375.374.749.624 1.124.873-.562 1.06-1.249 2.37-1.811 3.367-.561.998-.998 1.746-.998 1.746s0 .561-.125 1.309a8.968 8.968 0 0 1-.937 2.869c-3.683 2.182-7.616 4.302-11.237 5.673-2.623.998-6.493 2.245-10.926 3.43-4.433 1.247-9.365 2.431-13.985 3.678-4.495.936-9.239 1.996-13.61 2.931a24.516 24.516 0 0 0 2.185-1.122c.75-.437 1.561-.873 2.248-1.372 1.436-.998 2.685-2.058 3.184-2.993.437-.748 1.124-1.434 1.935-1.933 1.374.437 4.683.312 8.553-.873 3.871-1.184 8.179-3.554 11.425-7.295.937-1.06 1.686-1.995 2.373-2.806a37.709 37.709 0 0 0 1.748-2.244c.499-.686.874-1.247 1.249-1.808.312-.562.561-1.06.811-1.559.437-.998.624-1.933.687-3.118 0-1.184-.125-2.556-.375-4.427-.249-1.87-.125-4.052.188-6.359.187-1.123.312-2.307.499-3.492a16.92 16.92 0 0 1 .312-1.746c.063-.561.187-1.185.25-1.746.374-2.307.562-4.489.562-6.359 0-1.871-.25-3.43-.874-4.49-.25-.374-.812-.187-1.686.312-.437.249-.874.561-1.373.935-.5.374-1.062.811-1.624 1.247-2.247 1.746-4.807 3.679-6.055 4.303-2.123.997-4.995 4.738-8.054 8.604-1.561 1.933-3.059 3.99-4.495 5.736-1.374 1.808-2.622 3.367-3.309 4.552-.749 1.122-1.374 2.556-1.935 4.24-.562 1.621-.999 3.491-1.249 5.424-.5 3.928-.25 8.355 1.748 12.533-.624.686-1.373 1.247-2.185 1.746-.812.498-1.748.872-2.56 1.247-1.748.685-3.309 1.122-3.933 1.434-.687.311-1.623 1.122-2.497 2.057l-1.311 1.31c-.375.374-.687.748-.937.935-2.872.499-5.431.873-7.429 1.06-5.182.499-11.363.187-16.919-.499 0 0-24.411 1.746-37.709 6.609-13.235-4.863-37.708-6.609-37.708-6.609-5.494.624-11.737.998-16.919.499-1.935-.187-4.495-.561-7.429-1.06l-.937-.935c-.374-.375-.811-.873-1.311-1.31-.874-.873-1.873-1.683-2.497-2.057-.624-.312-2.185-.686-3.933-1.434-.874-.375-1.748-.811-2.622-1.247-.812-.499-1.624-1.123-2.186-1.746 1.998-4.178 2.248-8.605 1.749-12.533-.25-1.995-.687-3.866-1.249-5.424-.562-1.684-1.186-3.056-1.935-4.24-.687-1.122-1.936-2.744-3.309-4.552a255.333 255.333 0 0 0-4.495-5.736c-3.06-3.928-5.931-7.607-8.054-8.604-1.249-.624-3.871-2.557-6.056-4.303-.562-.436-1.124-.873-1.623-1.247-.5-.374-.999-.686-1.374-.935-.811-.499-1.436-.686-1.685-.312-.625 1.06-.874 2.619-.874 4.49 0 1.87.249 4.115.562 6.359.062.561.187 1.185.249 1.746.125.561.188 1.185.312 1.746.188 1.185.375 2.369.5 3.492.312 2.244.437 4.489.187 6.359-.25 1.871-.374 3.243-.374 4.427 0 1.185.249 2.12.686 3.118.188.499.5.997.812 1.559.312.561.749 1.122 1.249 1.808a37.296 37.296 0 0 0 1.748 2.244c.686.811 1.436 1.809 2.372 2.806 3.184 3.741 7.554 6.111 11.425 7.295 3.871 1.185 7.18 1.247 8.553.873.812.499 1.561 1.122 1.936 1.933.499.935 1.685 1.995 3.184 2.993.749.499 1.498.935 2.247 1.372.749.436 1.498.81 2.185 1.122-4.37-.873-9.052-1.995-13.547-2.931-4.62-1.247-9.552-2.431-13.985-3.678-4.433-1.185-8.366-2.432-10.926-3.43-3.683-1.371-7.554-3.491-11.237-5.673-.5-.998-.812-2.058-.937-2.869-.125-.81-.125-1.309-.125-1.309s-.437-.748-.998-1.746c-.562-.997-1.249-2.244-1.873-3.367.437-.187.811-.499 1.123-.873 1.499-1.558 3.309-4.925 4.683-8.292 1.373-3.43 2.31-6.797 1.81-8.542-.499-1.809-.25-3.866 0-5.986.187-1.06.312-2.058.437-3.055.125-.998.125-1.933 0-2.744-.125-.81-.624-1.621-1.248-2.369-.313-.374-.687-.686-1.124-1.06-.375-.374-.874-.686-1.311-.998-1.873-1.309-4.121-2.618-5.869-3.928-.437-.311-.874-.748-1.373-1.184-.5-.499-.999-.998-1.499-1.559-.499-.561-.999-1.185-1.498-1.746-.499-.623-.936-1.247-1.436-1.808-.936-1.185-1.623-2.307-2.185-3.118-.312-.374-.499-.748-.624-.997-.125-.25-.25-.374-.25-.374s-.062.249-.25.623a34.58 34.58 0 0 0-.499 1.684c-.375 1.309-.687 3.117-.687 4.738 0 1.621-.062 3.18-.187 4.801s-.25 3.305-.312 5.175c-.125 1.933-1.436 5.051-2.747 8.044-1.311 2.992-2.56 5.736-2.81 6.609-.25.873.562 3.304 1.686 5.736a45.683 45.683 0 0 0 1.873 3.492c.624 1.06 1.248 1.933 1.685 2.431.313.375.874.936 1.561 1.559.687.624 1.499 1.31 2.497 1.933.937.624 1.936 1.247 2.997 1.621 1.061.437 2.123.686 3.122.686.624 1.684 1.061 3.991 1.311 5.612-3.809-2.557-6.93-4.864-8.99-5.986-.812-.437-1.873-1.122-3.059-1.871-1.249-.81-2.56-1.808-3.996-2.93a137.435 137.435 0 0 1-8.99-7.669 146.818 146.818 0 0 1-7.679-7.732 250.254 250.254 0 0 1-2.622-2.806 47.735 47.735 0 0 0-1.499-1.558c-.562-.561-1.248-1.185-1.998-1.933a53.972 53.972 0 0 1-2.434-2.619c-.25-1.746 0-3.616.312-4.926.125-.685.312-1.247.437-1.621.062-.187.125-.374.187-.499 0-.124.063-.187.063-.187 1.186-1.621 3.246-3.928 6.992-6.796 2.56-1.995 4.432-4.614 5.681-7.108.624-1.247 1.124-2.494 1.436-3.616.312-1.123.437-2.182.437-3.055v-3.056c0-.935.125-1.745.187-2.494.125-1.496.375-2.681.5-3.741a15.79 15.79 0 0 0 .187-3.429c-.25-3.18-.874-8.168.187-13.405.25-1.31.375-2.494.437-3.617.063-1.122 0-2.057 0-2.93-.124-1.621-.374-2.619-.374-2.619s-1.998 1.684-4.558 3.991a192.072 192.072 0 0 0-4.058 3.741c-1.373 1.309-2.747 2.618-3.87 3.741-1.124 1.122-2.435 2.369-3.684 3.741a77.722 77.722 0 0 0-3.746 4.177c-2.372 2.806-4.245 5.612-4.807 7.669-.5 1.871-.687 3.243-.687 4.801 0 1.497.188 3.243.625 5.737.062.498.187.997.25 1.558.187 1.123.374 2.432.81 3.991.25.748.563 1.559.937 2.432a11.61 11.61 0 0 0 1.561 2.618c.5.748.999 1.434 1.374 2.12.437.686.749 1.372 1.061 1.995a29.957 29.957 0 0 1 1.373 3.43v.062c0 .624-.187 1.559-.312 2.556-.125.998-.25 2.058-.374 2.931-4.62-5.425-9.99-13.218-13.985-20.326l-2.497 1.184 2.622-1.247c-2.373-3.741-5.494-9.041-8.054-14.091 0-1.372.063-2.868.25-4.178.187-1.309.375-2.431.687-3.117.562-1.122 1.186-3.242 1.81-5.362 2.935-.187 9.927-3.367 14.734-6.797 2.56-1.808 3.684-3.803 4.682-6.11.5-1.185 1-2.432 1.561-3.803.624-1.372 1.374-2.868 2.435-4.49a215.034 215.034 0 0 0 3.122-4.925c.5-.811.999-1.684 1.373-2.494.187-.437.437-.811.624-1.247.188-.437.437-.811.625-1.247a30.35 30.35 0 0 0 .999-2.494c.312-.811.562-1.622.749-2.432.125-.374.187-.811.25-1.185.062-.374.124-.81.187-1.184.062-.811.062-1.559 0-2.307a38.163 38.163 0 0 0-.5-3.804c-.187-.997-.437-1.808-.624-2.431-.25-.624-.437-.998-.562-1.248-.125-.249-.25-.374-.25-.374s-.124.187-.437.562c-.312.374-.749.872-1.373 1.434a18.97 18.97 0 0 1-5.556 3.616c-2.498 1.06-4.87 2.619-7.43 4.365-2.56 1.745-5.369 3.803-8.678 5.736-3.309 1.995-5.681 3.491-7.554 5.05-1.873 1.559-3.246 3.305-4.495 5.861-1.061 2.245-.999 6.796 0 11.099.999 4.364 2.747 8.542 4.433 10.1a197.835 197.835 0 0 1-2.186 6.36c-.374.936-.561 1.933-.749 2.993-1.623-3.554-2.81-6.734-3.308-8.542-.313-1.185-.875-2.868-1.686-4.739-.75-1.933-1.686-4.115-2.622-6.484-1.873-4.739-3.621-10.101-4.495-14.715-.125-.873-.313-1.87-.437-2.993a241.38 241.38 0 0 1-.375-3.678c.687-.998 2.997-4.053 3.246-5.363.125-.623.125-2.12.313-3.865.187-1.746.686-3.679 1.623-5.175 5.057.374 9.864-.936 13.86-2.869a30.553 30.553 0 0 0 5.306-3.18c1.561-1.122 2.81-2.369 3.684-3.491 1.873-2.307 4.807-7.295 7.616-12.159.687-1.247 1.374-2.431 1.998-3.616.624-1.185 1.249-2.307 1.686-3.367.999-2.12 1.623-3.928 1.685-5.175 0-.748.188-1.995.562-3.429.125-.686.313-1.434.5-2.245.187-.748.374-1.559.562-2.307.686-2.993 1.186-5.611.25-5.549-.687 0-1.436.249-2.248.561-.812.312-1.686.748-2.622 1.247-.937.499-1.936 1.122-2.997 1.808a304.73 304.73 0 0 0-3.121 2.183c-1.062.748-2.186 1.558-3.247 2.306-1.061.749-2.185 1.559-3.246 2.245-2.123 1.434-4.308 2.681-6.306 3.367-3.995 1.372-5.868 2.245-7.554 3.866-.812.81-1.623 1.87-2.56 3.242-.5.686-.999 1.496-1.56 2.432-.563.935-1.25 1.995-1.936 3.242-2.56 4.302-3.309 8.916-3.184 12.657.125 1.871.375 3.492.75 4.864.374 1.309.873 2.307 1.31 2.805-.312.873-.687 1.746-1.373 2.37-.812.748-1.561 2.12-2.123 3.678a32.225 32.225 0 0 0-1.248 4.614c-.375-4.052-.75-8.417-1.312-12.595-.25-4.364-.874-8.978-1.31-13.156-.126-1.06-.25-2.057-.313-3.055-.125-.997-.187-1.933-.312-2.806-.125-1.745-.25-3.304-.312-4.613-.063-3.554.25-7.67.811-11.598 1.499-1.746 3.746-2.806 3.746-2.806s.5-.685 1.249-1.621c.687-.935 1.686-2.12 2.497-3.117.375.249.874.374 1.374.499 2.247.436 6.43.249 10.488-.312 3.996-.624 7.867-1.621 9.365-2.993 3.06-2.743 8.803-3.741 11.862-6.11.75-.624 1.311-1.434 1.686-2.37.187-.499.374-.997.499-1.558.125-.562.25-1.06.375-1.684.062-.561.124-1.185.25-1.746.062-.623.124-1.184.187-1.808 0-.561.124-1.185.187-1.746.062-.561.125-1.122.25-1.683.374-2.12 1.748-5.487 3.121-8.293.687-1.372 1.311-2.619 1.873-3.554.5-.873.812-1.434.812-1.434s-1.062.249-2.56.748-3.371 1.247-4.932 2.183c-3.122 1.87-6.118 3.242-9.864 5.237-1.873.998-5.619 1.746-9.178 2.369-3.558.624-6.867 1.123-7.866 1.372-.999.312-2.872 2.182-4.682 4.365a48.635 48.635 0 0 0-2.435 3.242c-.687 1.06-1.249 1.933-1.498 2.556-.188.437-.5 1.185-.75 1.995-.25.873-.5 1.871-.686 2.931-.188 1.06-.25 2.12-.125 3.18.062 1.06.312 1.995.749 2.806-1.374 1.309-3.496 2.743-4.995 3.741.75-4.178 1.499-7.794 1.561-9.976 0-.873.125-1.996.375-3.305.187-1.372.5-2.868.811-4.552.75-3.367 1.686-7.17 2.81-10.849 2.185-7.357 4.932-14.029 5.244-15.463.312-1.434.999-3.429 1.873-5.798 1.56-1.185 3.371-1.996 4.807-2.494.75-.25 1.374-.437 1.81-.562.25 0 .375-.124.563-.124h.187c2.185 0 5.494.249 10.239 1.434 3.246.81 6.742.748 9.801.249 1.499-.249 2.935-.561 4.183-.997 1.249-.437 2.248-.873 3.059-1.372a40.097 40.097 0 0 1 2.935-1.746c.874-.499 1.685-.873 2.434-1.247 1.499-.748 2.747-1.247 3.809-1.683.624-.25 1.186-.499 1.748-.811.562-.312 1.061-.561 1.623-.935 2.81-1.933 7.18-5.113 12.549-7.046 1.373-.499 2.497-1.06 3.558-1.559 1.062-.498 1.873-1.06 2.623-1.496.749-.437 1.248-.873 1.623-1.185.187-.124.312-.249.437-.311l.125-.125s-.687-.125-1.748-.374c-1.124-.25-2.623-.561-4.371-.873-.874-.187-1.81-.374-2.747-.561-.936-.187-1.935-.312-2.934-.499a449.475 449.475 0 0 0-5.556-.873c-3.309-.499-7.555-1.06-11.425-1.247-3.933-.249-7.555 0-9.864.623-1.998.686-3.434 1.247-4.87 2.12-1.374.873-2.934 1.933-5.057 3.617-.437.311-.874.686-1.311 1.06-.936.748-2.06 1.621-3.309 2.805-.624.624-1.186 1.31-1.748 2.058a17.124 17.124 0 0 0-1.623 2.619 24.789 24.789 0 0 1-1.249 2.182c-.437.686-.874 1.309-1.31 1.933a37.156 37.156 0 0 1-1.312 1.621c-.437.499-.812.935-1.186 1.309h-.063c-1.186.624-3.808 1.746-5.556 2.494 2.622-6.422 6.93-14.714 11.362-21.573h.125c2.186-3.803 5.432-9.041 8.74-13.655.688-.374 1.312-.748 1.999-1.122.686-.374 1.373-.686 1.997-.998 1.311-.623 2.498-1.06 3.31-1.184 1.373-.187 3.683-.873 5.993-1.56 1.81 2.058 8.553 5.55 14.421 7.296 1.561.499 2.935.686 4.308.686 1.311 0 2.56-.125 3.933-.374 1.374-.187 2.747-.499 4.308-.749 1.623-.249 3.371-.436 5.432-.374 4.12 0 8.303 0 11.986-.374 3.746-.374 6.993-1.06 9.49-2.556.624-.374 1.186-.686 1.686-1.06.499-.312.936-.624 1.311-.873.749-.561 1.311-1.06 1.748-1.434.437-.374.624-.748.811-.935.125-.187.188-.312.188-.312s-.25 0-.687-.125c-.437-.062-1.124-.25-1.873-.499a20.095 20.095 0 0 1-2.747-1.06 20.587 20.587 0 0 1-3.184-1.745c-1.124-.749-2.31-1.372-3.559-1.996-1.311-.623-2.622-1.184-4.12-1.808-2.934-1.184-6.181-2.37-9.677-3.99-3.559-1.559-6.118-2.619-8.615-3.305a25.273 25.273 0 0 0-3.684-.623c-1.249-.063-2.622 0-4.12.124-2.685.312-6.93 2.744-10.489 5.737a36.753 36.753 0 0 0-4.682 4.676c-1.249 1.559-2.123 2.93-2.435 3.99-.999.25-2.185.562-3.434.873-1.248.312-2.56.624-3.683.936a18.97 18.97 0 0 0-3.184 1.06c.624-.811 1.248-1.56 1.81-2.245a56.36 56.36 0 0 1 1.686-1.995c1.061-1.185 1.998-2.183 2.747-2.868 1.935-1.746 4.807-5.363 8.303-9.228 3.496-3.866 7.679-8.044 11.737-10.974a47.106 47.106 0 0 1 2.685-1.87 64.762 64.762 0 0 1 3.371-2.183c1.374.062 5.369.312 6.805-.125 1.249-.436 5.806-2.93 9.677-2.68 2.06 4.114 5.619 7.294 9.24 9.601 3.621 2.307 7.429 3.804 10.301 4.365.749.124 1.623.25 2.685.374 1.061.125 2.185.25 3.433.374 2.373.25 5.12.561 7.867.873 1.311.125 2.622.312 3.871.436.624 0 1.248.125 1.81.188.562.062 1.124.124 1.686.124 1.061 0 2.06.125 2.872.063.437 0 .811 0 1.123-.125.375 0 .687-.125.937-.187 1.248-.437 4.432-.748 7.179-.998.687 0 1.311-.124 1.936-.187.624-.062 1.124-.125 1.561-.25.874-.186 1.373-.436 1.248-.872-.811-2.245-4.12-4.988-8.241-7.67a70.592 70.592 0 0 0-3.184-2.057l-3.184-2.057c-2.06-1.31-3.933-2.744-5.306-4.116-1.374-1.434-2.435-2.431-3.434-3.242a9.269 9.269 0 0 0-3.059-1.683c-1.124-.374-2.435-.686-4.121-.936a97.827 97.827 0 0 0-2.997-.374c-1.123-.125-2.434-.187-3.933-.374-5.306-.374-10.176.935-13.797 2.681-.874.437-1.748.873-2.435 1.372-.749.436-1.373.935-1.935 1.372-1.124.935-1.811 1.745-2.123 2.307-.999.187-1.998.249-2.934 0-.562-.125-1.249-.187-2.06-.187-.812 0-1.686.124-2.56.249-1.811.25-3.684.748-5.119 1.247 3.745-2.245 7.866-4.614 11.674-6.92 4.183-2.183 8.491-4.677 12.486-6.735 1.998-1.06 3.871-1.995 5.619-2.868.5-.25 5.931-3.055 12.549-6.61 2.185.063 4.995.437 7.991 1.435 4.87 1.559 8.741 1.247 11.363 1.122 7.741-.25 9.677-.25 14.546-1.933 4.87-1.683 12.611-8.978 17.981-13.904 5.369-4.926 15.607-6.173 15.607-6.173S221.07 8.542 213.89 9.727c-7.242 1.184-10.738 3.055-15.171 3.242-4.432.125-3.621 3.118-12.985 4.427-4.496.623-11.613 4.926-14.547 11.223-1.561 3.305-2.997 5.736-4.245 7.42-13.548 6.235-28.032 13.094-32.465 15.65a170.35 170.35 0 0 0-12.486 7.794c-1.81 1.247-3.496 2.431-4.994 3.554-.75.561-1.499 1.06-2.123 1.62-.687.5-1.311.999-1.873 1.435.125-.935.312-1.995.499-3.055.188-1.06.437-1.995.625-2.681v-.063c.312-.498.749-.997 1.186-1.558.499-.562.999-1.123 1.623-1.746 1.186-1.185 2.747-2.432 4.495-3.617 4.495-2.93 6.93-5.923 8.865-7.918 1.374-1.434 2.56-2.556 3.497-3.617.999-.997 1.81-1.808 2.559-2.618.687-.81 1.374-1.559 1.998-2.37.624-.81 1.249-1.745 1.935-2.805.75-1.06 1.374-2.494 1.936-4.115.624-1.622 1.186-3.43 1.685-5.363a157.58 157.58 0 0 0 1.624-5.798 83.144 83.144 0 0 1 1.623-5.487c.25-.81.624-1.684 1.124-2.556.499-.811 1.061-1.684 1.748-2.495.687-.81 1.373-1.62 2.122-2.369.75-.748 1.561-1.434 2.31-2.12 1.561-1.31 3.06-2.37 4.121-3.117 1.124-.749 1.81-1.185 1.81-1.185s-1.56 0-3.995.187a62.358 62.358 0 0 0-4.246.374c-.811.062-1.623.187-2.497.312l-2.622.374c-.874.125-1.81.312-2.747.499-.936.187-1.81.374-2.747.623a42.35 42.35 0 0 0-2.684.686c-.874.25-1.749.499-2.56.81-.812.312-1.623.562-2.373.874a33.86 33.86 0 0 0-2.122.997c-1.311.686-2.497 1.372-3.309 2.183-3.371 3.117-5.432 5.611-7.18 7.793a179.758 179.758 0 0 1-2.497 3.118 22.82 22.82 0 0 1-2.684 2.806c-.999.935-1.499 1.62-1.873 2.369-.375.748-.5 1.434-.812 2.307-.25.873-.687 1.87-1.374 3.18-.686 1.31-1.81 2.93-3.371 5.113-1.561 2.057-2.684 5.112-2.997 8.23-.249 3.18.313 6.484 2.123 9.103 2.56 3.804 3.808 6.672 4.37 8.605v.685c0 .437 0 1.06-.125 1.746a19.275 19.275 0 0 1-.374 2.432 21.477 21.477 0 0 1-.749 2.681c-1.311 1.06-2.31 1.808-2.81 2.245-.811.623-1.623 1.247-2.559 1.995-.874.748-1.811 1.496-2.81 2.37-.999.872-1.998 1.807-3.121 2.743a156.88 156.88 0 0 0-3.434 3.304c-4.745 4.739-10.489 11.036-16.794 19.89-.375-2.307-.75-4.863-1.249-7.045 1.249-1.06 3.746-3.056 6.056-5.05 2.31-1.996 4.433-3.929 4.932-4.927.312-.623.375-1.62.312-2.992 0-1.31-.187-2.868-.374-4.614-.312-3.492-.687-7.545-.437-11.099.25-3.554 1.436-6.796 2.372-9.914.999-3.117 1.748-6.172 1.249-9.477a94.695 94.695 0 0 0-1.062-5.611c-.374-1.996-.811-4.053-1.186-5.924-.811-3.679-1.373-6.484-1.623-6.11-.125.187-.624.748-1.374 1.683-.749.936-1.748 2.12-2.934 3.554-1.123 1.434-2.435 3.055-3.746 4.801-1.31 1.746-2.622 3.554-3.808 5.425-2.497 3.616-5.681 7.108-8.49 10.225-2.748 3.118-5.12 5.986-5.807 8.293-.312 1.122-.5 2.12-.624 3.118-.125.997-.125 1.995-.125 3.242 0 1.247 0 2.618-.062 4.427 0 1.808-.188 3.99-.313 6.734-.124 2.618.125 4.551.75 5.985.624 1.497 1.56 2.494 2.81 3.367 2.496 1.684 6.242 2.681 11.174 4.926.312 2.993.812 6.983 1.249 10.288a380.02 380.02 0 0 0-2.372 3.616c-.375.624-.812 1.247-1.25 1.933-.436.686-.81 1.372-1.248 2.058-2.81 4.614-5.681 9.913-8.366 15.463-2.684 5.549-5.056 11.285-7.054 16.772-.375-.811-1.81-3.305-2.747-6.11-.437-1.372-.812-2.869-.937-4.178-.062-1.309.125-2.494.687-3.304 3.371-4.677 4.12-9.79 3.996-14.341-.063-2.245-.437-4.427-.75-6.173-.374-1.808-.811-3.242-1.123-4.115-.313-.873-.812-1.621-1.499-2.369-1.997-2.245-5.244-4.24-6.368-8.48-.749-2.806-2.747-6.422-4.807-9.477-1.998-3.056-3.995-5.612-4.87-6.236-.811-.623-1.748-1.745-2.497-2.743a20.172 20.172 0 0 1-1.248-1.87s-.125.56-.313 1.62c-.187.998-.437 2.432-.811 4.116-.625 3.367-1.499 7.794-2.498 11.909-.124.499-.25 1.06-.374 1.559-.562 2.182-1.186 4.052-1.81 5.798-.625 1.746-1.25 3.305-1.749 4.864-.5 1.558-.874 3.055-1.061 4.614a12.977 12.977 0 0 0 .312 4.863c.812 3.492 1 5.113 1.686 6.796.687 1.621 1.935 3.305 4.994 6.609 3.06 3.305 7.617 5.674 11.488 7.794 3.87 2.058 7.117 3.866 7.741 5.924.375 1.371.874 3.055 1.311 4.613.25.811.437 1.559.625 2.307.187.749.437 1.435.624 2.058-.25.873-.562 1.746-.812 2.556-.25.811-.5 1.684-.749 2.432-.5 1.621-.874 3.118-1.248 4.552-1.374 5.175-2.31 9.789-3.06 13.904-.686 4.115-1.186 7.731-1.498 10.974-.062.81-.125 1.558-.25 2.307 0 .748-.125 1.496-.125 2.182a45.572 45.572 0 0 0-.187 3.928c0 1.247-.062 2.369-.062 3.429v5.487c-.562-.561-1.748-1.683-2.997-3.055-1.311-1.372-2.81-2.93-4.058-4.302 5.619-7.482 8.553-13.717 4.807-19.08-3.933-5.673-5.868-11.223-8.678-17.707-1.373-3.242-3.87-5.674-6.305-7.981-2.435-2.369-4.933-4.676-6.244-7.794a18.722 18.722 0 0 0-1.06-2.245c-.376-.685-.75-1.371-1.125-1.995a24.3 24.3 0 0 0-2.31-3.242c-.749-.873-1.373-1.559-1.81-2.058-.437-.498-.75-.685-.75-.685s-.311.935-.81 2.556c-.25.81-.5 1.808-.875 2.93a82.014 82.014 0 0 0-.936 3.741c-1.312 5.363-2.623 12.346-3.06 18.581-.437 6.235.625 13.53 2.747 19.703a72.65 72.65 0 0 0 1.748 4.427 35.956 35.956 0 0 0 1.998 3.803c1.374 2.307 2.935 4.115 4.495 5.175 2.498 1.808 5.869 2.619 8.928 3.055 3.06.375 5.869.312 7.305.25a108.458 108.458 0 0 1 5.369 5.362c1.685 1.746 2.996 3.429 3.558 4.614 0 5.549.125 13.842 1.062 23.132.936 9.727 2.56 18.269 3.683 23.694-1.623-1.123-3.933-2.806-4.995-3.742l-.062-.062c-1.186-1.995-2.56-5.113-3.121-8.978-.687-4.864-2.498-8.106-3.622-10.475-.811-1.684-1.435-3.118-1.997-4.303-.562-1.184-1-2.182-1.499-3.117-.5-.873-.936-1.684-1.498-2.556a41.933 41.933 0 0 0-1.998-2.682c-1.623-1.995-4.682-4.302-8.178-6.609-1.748-1.184-3.559-2.307-5.307-3.429-1.748-1.122-3.496-2.245-5.057-3.242-1.498-.998-2.934-2.37-4.12-3.928-1.187-1.559-2.186-3.243-2.997-4.801a33.51 33.51 0 0 1-1.81-4.116c-.375-1.06-.625-1.745-.625-1.745s-.5 1.122-1.249 2.992c-.374.936-.749 2.058-1.123 3.243-.375 1.247-.812 2.556-1.187 3.99-1.498 5.612-2.247 12.283-.561 15.9.874 1.808 1.748 3.304 2.497 4.676.811 1.372 1.56 2.494 2.31 3.616 1.436 2.183 2.684 3.991 3.558 6.235.937 2.183 1.998 2.806 3.434 3.928 1.436 1.123 3.309 2.869 5.869 7.171 1.248 2.057 3.62 4.302 6.617 5.985 2.935 1.684 6.43 2.806 9.865 2.744 4.994-.125 8.428.374 10.55.873 0 0 .063 0 .188.125l.5.249c.436.187.998.561 1.685.935 1.373.811 2.997 1.995 4.37 3.429.375 1.559.562 2.682.687 3.305.686 3.679 1.685 8.293 3.62 14.403 1.936 6.111 4.746 13.78 9.553 23.319-2.373-.997-4.995-2.12-7.242-2.93-.125-.748-.375-1.871-.562-3.118-.25-1.247-.562-2.681-.812-4.115-.125-.686-.312-1.372-.437-2.057-.125-.686-.312-1.31-.437-1.871-.312-1.122-.687-1.995-.999-2.494-.437-.561-1.373-1.185-2.622-1.808l-2.122-1.06c-.75-.374-1.624-.748-2.435-1.122-3.496-1.559-7.554-3.43-10.738-5.487-1.624-.998-3.06-2.183-4.37-3.305-1.312-1.185-2.56-2.369-3.809-3.492-2.497-2.307-5.057-4.302-8.428-5.549-1.686-.623-3.808-1.247-5.931-1.933-2.123-.623-4.308-1.309-6.306-1.87-3.995-1.122-6.992-1.933-6.742-1.621.25.311 1.31 2.494 2.871 5.487.812 1.496 1.686 3.179 2.685 4.988.999 1.745 2.06 3.616 3.122 5.362 1.123 1.746 1.997 3.678 2.871 5.611.438.936.812 1.933 1.187 2.869.374.935.749 1.87 1.123 2.743a46.314 46.314 0 0 0 2.185 4.926c.75 1.434 1.561 2.681 2.435 3.491a14.808 14.808 0 0 0 2.56 2.058c.874.561 1.81 1.122 2.997 1.808 1.123.624 2.434 1.372 4.12 2.369 1.686.998 3.621 2.245 6.119 3.804 1.186.748 2.247 1.372 3.246 1.808.999.436 1.935.748 2.747.935 1.685.374 3.184.25 4.682-.249 2.934-.935 5.931-3.118 10.8-5.549 1.5.685 3.185 1.496 4.995 2.307 1.81.81 3.621 1.621 5.307 2.369.624 1.185 1.311 2.494 2.06 3.741.375.623.75 1.309 1.124 1.995.375.686.812 1.31 1.186 1.995 2.747 4.614 6.118 9.665 9.864 14.715a170.477 170.477 0 0 0 11.987 14.403c-.999-.124-4.12-.436-7.304-1.247-1.561-.436-3.184-.935-4.495-1.621-1.311-.686-2.31-1.434-2.747-2.369-2.56-5.113-6.93-8.48-11.363-10.912-2.185-1.184-4.37-2.12-6.243-2.868-1.873-.748-3.496-1.184-4.495-1.496a8.35 8.35 0 0 0-3.06-.187c-3.246.249-6.867 1.559-11.486 0-3.06-.998-7.492-1.497-11.488-1.684-3.995-.187-7.492-.124-8.49.187-1 .25-2.623.374-3.934.374h-2.435s.5.375 1.311 1.06a112.25 112.25 0 0 0 3.434 2.806 276.517 276.517 0 0 1 9.74 8.418c.436.374.811.748 1.248 1.184 1.686 1.621 3.184 3.118 4.433 4.614 1.31 1.434 2.435 2.806 3.62 3.991 1.187 1.247 2.373 2.369 3.747 3.367a19.474 19.474 0 0 0 4.807 2.556c3.746 1.372 5.431 2.12 7.367 2.556 1.998.374 4.183.437 8.99 0 4.807-.436 9.552-2.494 13.61-4.239 4.12-1.746 7.554-3.18 9.864-2.495 1.56.437 3.371.998 5.12 1.559 1.748.499 3.496.998 4.807 1.434 2.747 2.681 5.306 5.113 7.679 7.171 4.245 3.741 8.303 6.796 11.924 9.415a131.84 131.84 0 0 0 10.052 6.484c6.055 3.554 10.8 5.736 14.671 7.295.562.187 1.374.624 2.56 1.123-.812.187-2.435.623-4.37 1.059-1.936.437-4.183.873-6.181 1.31-5.12-7.919-9.802-13.094-16.919-12.907-1.873 0-3.684 0-5.494-.124a72.523 72.523 0 0 1-5.307-.562c-1.748-.249-3.558-.561-5.369-.873-1.81-.311-3.683-.623-5.619-.997a25.135 25.135 0 0 0-5.68-.25c-1.811.125-3.622.437-5.37.686-3.559.561-7.117 1.185-10.925.437-3.809-.811-7.243-.873-9.74-.811-2.497.063-4.058.374-4.058.374l2.06 2.058c.625.623 1.499 1.434 2.373 2.307.936.873 1.935 1.808 3.121 2.806 4.62 4.052 10.926 8.916 17.044 12.657 6.118 3.741 14.235 6.858 21.726 8.355 7.492 1.559 14.297 1.559 17.918.187 3.059-1.122 5.432-3.429 7.18-5.674 1.748-2.245 2.934-4.552 3.496-5.674 2.497-.623 5.369-1.372 7.866-1.87 2.56-.562 4.807-.936 6.243-.873 2.81 1.184 6.368 2.556 10.551 3.99a160.18 160.18 0 0 0 13.922 3.928c5.307 1.31 10.364 2.182 14.922 2.806 4.495.623 8.49.935 11.612 1.185-1.623 1.122-4.121 2.618-5.432 3.304h-.125c-2.497.499-6.368.811-10.738 0-1.373-.187-2.684-.374-3.871-.499-.624 0-1.186-.062-1.748-.062h-1.623c-1.061 0-1.998 0-2.934.062-.874 0-1.686.063-2.435.125-2.123.062-3.871.062-5.369.125-1.498 0-2.747 0-3.933.062-2.31.125-4.246.312-6.993.811-1.373.249-2.996.748-4.744 1.434a80.48 80.48 0 0 0-5.619 2.432c-1.998.935-3.996 1.87-5.931 2.805-.999.437-1.998.936-2.934 1.372-.937.436-1.873.873-2.747 1.247-3.497 1.559-8.554 1.808-12.736 1.559a66.864 66.864 0 0 1-5.307-.561c-1.311-.187-2.185-.375-2.185-.375s.999.998 2.747 2.495c1.748 1.496 4.183 3.491 7.055 5.424 2.871 1.933 6.055 3.866 9.239 5.3a30.297 30.297 0 0 0 4.62 1.746c1.436.436 2.872.686 4.058.748 1.249 0 2.373.062 3.434 0 1.061 0 2.06 0 2.997-.125.936 0 1.81-.124 2.684-.187.812-.062 1.624-.187 2.435-.249a56.296 56.296 0 0 1 4.37-.374 31.9 31.9 0 0 1 4.246-.125c2.934.062 3.995-.624 5.868-1.372.937-.374 2.06-.873 3.684-1.247.811-.187 1.748-.374 2.872-.623 1.123-.187 2.372-.437 3.808-.624 1.373-.187 2.934-.623 4.495-1.247a38.22 38.22 0 0 0 2.31-1.06 42.976 42.976 0 0 0 2.247-1.372c1.436-.997 2.685-2.119 3.746-3.429a13.128 13.128 0 0 0 2.31-4.177c1.311-4.302 2.81-7.046 3.933-8.729l.125-.125c.125-.062.25-.187.437-.374.375-.312.874-.686 1.499-1.185a28.98 28.98 0 0 1 2.247-1.434 26.995 26.995 0 0 1 2.685-1.434c.437 0 .874 0 1.248.062h1.062c.624 0 1.123 0 1.498.063 1.124.062 2.372.124 3.746.187h.812c3.621.124 18.791 1.122 34.087 7.108-13.672 9.477-20.977 24.441-20.977 24.441h10.301c4.932-8.854 12.424-15.213 20.603-19.827 8.178 4.614 15.67 10.973 20.602 19.827h10.301s-7.304-15.026-20.977-24.441c15.358-5.986 30.467-6.921 34.088-7.108h.811c1.312 0 2.56-.125 3.684-.187.375 0 .874 0 1.498-.063h1.062c.374 0 .811 0 1.248-.062.937.436 1.873.873 2.685 1.434a45.47 45.47 0 0 1 2.185 1.434c.624.437 1.124.873 1.498 1.185.188.125.312.249.437.374l.125.125c1.124 1.745 2.622 4.427 3.933 8.729.437 1.496 1.249 2.868 2.31 4.177 1.062 1.31 2.31 2.432 3.746 3.429.687.499 1.436.936 2.248 1.372.749.437 1.56.748 2.31 1.06 1.56.624 3.121 1.06 4.495 1.247 1.436.187 2.747.374 3.808.624 1.124.187 2.06.374 2.872.623 1.623.437 2.747.873 3.683 1.247 1.873.748 2.935 1.434 5.869 1.372 1.436 0 2.809 0 4.245.125 1.374.124 2.81.249 4.37.374.75.062 1.561.187 2.435.249.812 0 1.748.125 2.685.187.936 0 1.935.063 2.997.125h3.433c1.186 0 2.622-.312 4.058-.748 1.436-.437 3.059-.998 4.62-1.746 3.184-1.434 6.431-3.367 9.24-5.3 2.872-1.933 5.307-3.928 7.055-5.424 1.685-1.497 2.747-2.495 2.747-2.495s-.812.188-2.185.375c-1.311.249-3.184.436-5.307.561-4.183.249-9.24 0-12.736-1.559-.874-.374-1.811-.811-2.747-1.247-.936-.436-1.935-.873-2.934-1.372a532.687 532.687 0 0 1-5.931-2.805 95.895 95.895 0 0 0-5.619-2.432c-1.748-.686-3.371-1.247-4.745-1.434-2.809-.499-4.682-.748-6.992-.811-1.186 0-2.435 0-3.933-.062-1.499 0-3.247 0-5.432-.125-.749 0-1.561-.062-2.435-.125-.874 0-1.873-.062-2.934-.062h-1.623c-.562 0-1.124 0-1.748.062-1.186.063-2.498.25-3.871.499-4.433.748-8.241.437-10.738 0h-.063c-1.311-.623-3.746-2.182-5.431-3.304 3.121-.25 7.117-.499 11.612-1.185 4.558-.624 9.614-1.559 14.921-2.806a166.56 166.56 0 0 0 13.922-3.928c4.121-1.372 7.679-2.806 10.551-3.99 1.436 0 3.684.311 6.243.873 2.498.498 5.369 1.247 7.867 1.87.562 1.122 1.748 3.367 3.496 5.674 1.748 2.245 4.183 4.552 7.242 5.674 3.621 1.372 10.426 1.372 17.918-.187 7.492-1.559 15.608-4.614 21.726-8.355 6.118-3.741 12.486-8.605 17.044-12.657 1.186-.998 2.185-1.996 3.121-2.806.937-.873 1.748-1.621 2.373-2.307l2.06-2.058s-1.561-.311-4.058-.374c-2.497-.062-5.931 0-9.739.811-3.809.748-7.367.187-10.926-.437-1.811-.311-3.559-.561-5.431-.686-1.873-.124-3.746-.124-5.682.25-1.935.312-3.808.686-5.619.997-1.81.312-3.621.562-5.369.873-1.748.25-3.558.437-5.306.562-1.811.124-3.621.187-5.494.124-7.117-.249-11.8 4.988-16.919 12.907-1.998-.374-4.246-.811-6.181-1.31-1.935-.436-3.621-.872-4.37-1.059 1.124-.499 1.998-.873 2.56-1.123 3.87-1.559 8.615-3.741 14.671-7.295 2.997-1.808 6.368-3.866 10.051-6.484 3.684-2.619 7.679-5.674 11.925-9.415 2.372-2.058 4.932-4.49 7.679-7.171 1.373-.374 3.059-.873 4.807-1.434 1.748-.561 3.559-1.06 5.119-1.559 2.31-.685 5.744.749 9.865 2.495 4.12 1.745 8.802 3.803 13.61 4.239 4.807.437 7.054.374 8.99 0 1.998-.374 3.621-1.184 7.367-2.556a19.48 19.48 0 0 0 4.807-2.556c1.373-.998 2.56-2.12 3.746-3.367 1.186-1.247 2.31-2.619 3.621-3.991 1.248-1.434 2.684-2.993 4.432-4.614.437-.374.812-.748 1.249-1.184a276.617 276.617 0 0 1 9.739-8.418c1.374-1.122 2.56-2.12 3.372-2.806.874-.685 1.311-1.06 1.311-1.06h-2.435l.437.624Z"/><path d="M458.809 257.883c.124-.623.312-1.746.686-3.304 1.436-1.434 3.06-2.619 4.371-3.43.686-.436 1.248-.748 1.685-.935.188-.125.375-.187.5-.249.125-.063.187-.125.187-.125 2.123-.499 5.556-.998 10.551-.873 3.434.062 6.93-1.06 9.926-2.743 2.997-1.684 5.37-3.928 6.618-5.986 2.622-4.302 4.495-5.986 5.931-7.17 1.436-1.123 2.497-1.746 3.434-3.929.936-2.182 2.123-4.052 3.558-6.235.687-1.06 1.499-2.244 2.31-3.616a61.958 61.958 0 0 0 2.498-4.676c1.685-3.617.936-10.226-.562-15.9-.375-1.434-.812-2.743-1.186-3.99-.375-1.247-.812-2.307-1.124-3.242a53.61 53.61 0 0 0-1.186-2.993s-.188.686-.625 1.746c-.374 1.06-.999 2.494-1.81 4.115-.812 1.559-1.811 3.304-3.059 4.801-1.186 1.559-2.622 2.93-4.121 3.928-1.498.997-3.246 2.057-4.994 3.242-1.811 1.122-3.559 2.307-5.307 3.429-3.496 2.307-6.555 4.614-8.116 6.61a41.556 41.556 0 0 0-1.998 2.681c-.562.81-1.061 1.621-1.498 2.556-.5.935-.937 1.933-1.499 3.118-.561 1.184-1.186 2.618-1.997 4.302-1.124 2.369-2.935 5.611-3.621 10.475-.562 3.865-1.936 6.983-3.122 8.978l-.062.063c-.999.935-3.372 2.618-4.995 3.741 1.124-5.425 2.81-13.967 3.684-23.694.998-9.228 1.123-17.583 1.123-23.132.562-1.184 1.873-2.868 3.559-4.614 1.686-1.746 3.559-3.678 5.369-5.362 1.374 0 4.183.125 7.305-.249 3.059-.374 6.43-1.247 8.99-3.056 1.498-1.122 3.059-2.868 4.432-5.175a35.748 35.748 0 0 0 1.998-3.803c.624-1.372 1.186-2.868 1.748-4.427 2.123-6.173 3.184-13.468 2.747-19.703-.437-6.235-1.686-13.218-3.059-18.58a80.17 80.17 0 0 0-.937-3.741c-.312-1.123-.624-2.12-.874-2.931-.499-1.621-.811-2.556-.811-2.556s-.25.249-.749.686c-.437.498-1.062 1.184-1.811 2.057a45.633 45.633 0 0 0-2.31 3.242c-.374.624-.749 1.31-1.124 1.996-.374.748-.749 1.496-1.061 2.244-1.311 3.18-3.808 5.487-6.243 7.794-2.435 2.307-4.932 4.739-6.306 7.981-2.809 6.484-4.744 12.034-8.678 17.708-3.745 5.362-.874 11.597 4.808 19.079-1.249 1.372-2.747 2.93-4.058 4.302-1.311 1.372-2.435 2.494-2.997 3.055v-5.486c0-1.06 0-2.245-.063-3.43 0-1.247-.124-2.556-.187-3.928 0-.686-.125-1.434-.125-2.182a32.633 32.633 0 0 0-.249-2.307c-.313-3.18-.812-6.796-1.499-10.974-.687-4.115-1.685-8.729-2.996-13.904-.375-1.434-.812-2.931-1.249-4.552l-.749-2.431c-.25-.811-.562-1.684-.812-2.557.187-.623.375-1.309.562-2.057.187-.749.437-1.559.624-2.307.437-1.621.937-3.243 1.311-4.614.562-2.058 3.871-3.866 7.742-5.924 3.871-2.12 8.428-4.427 11.487-7.794 2.997-3.304 4.246-4.988 4.932-6.609.687-1.621.874-3.304 1.686-6.796.375-1.746.499-3.367.312-4.863-.187-1.559-.562-3.055-1.061-4.614-.5-1.559-1.124-3.118-1.748-4.864-.625-1.746-1.249-3.616-1.811-5.798-.125-.5-.25-1.06-.374-1.559-.999-4.178-1.873-8.542-2.498-11.909-.312-1.683-.624-3.118-.811-4.115-.188-.998-.312-1.621-.312-1.621s-.562.873-1.249 1.87c-.749.998-1.686 2.12-2.497 2.744-.812.623-2.81 3.117-4.87 6.235-1.998 3.117-4.058 6.671-4.807 9.477-1.061 4.24-4.308 6.235-6.368 8.48-.624.748-1.186 1.496-1.499 2.369-.312.873-.749 2.369-1.123 4.115a34.721 34.721 0 0 0-.749 6.173c-.188 4.552.561 9.664 3.995 14.341.562.81.749 1.995.687 3.304a17.4 17.4 0 0 1-.937 4.178c-.936 2.806-2.372 5.362-2.747 6.11-1.997-5.487-4.37-11.223-7.054-16.772-2.685-5.549-5.557-10.849-8.366-15.401-.437-.686-.812-1.372-1.249-2.057-.437-.624-.811-1.31-1.248-1.933-.812-1.247-1.624-2.494-2.373-3.617.437-3.304.937-7.295 1.249-10.288 4.932-2.244 8.678-3.242 11.175-4.925 1.249-.873 2.185-1.87 2.747-3.367.624-1.497.874-3.367.749-5.986-.125-2.743-.249-4.926-.312-6.734 0-1.808-.062-3.242-.062-4.427 0-1.184 0-2.244-.125-3.242a21.205 21.205 0 0 0-.624-3.117c-.687-2.308-3.06-5.113-5.807-8.293-2.809-3.118-5.993-6.547-8.428-10.226-1.186-1.808-2.56-3.678-3.808-5.424-1.311-1.746-2.622-3.367-3.746-4.801-1.186-1.434-2.185-2.619-2.934-3.554-.75-.936-1.249-1.497-1.374-1.684-.187-.374-.811 2.432-1.623 6.11-.375 1.871-.812 3.929-1.186 5.924-.375 1.995-.749 3.99-.999 5.612-.5 3.304.25 6.297 1.248 9.477.937 3.117 2.123 6.36 2.373 9.914.312 3.554-.063 7.669-.437 11.098a80.544 80.544 0 0 0-.375 4.614c-.062 1.31 0 2.37.312 2.993.5 1.06 2.623 2.93 4.995 4.926 2.31 1.933 4.807 3.99 6.056 5.05-.5 2.12-.874 4.676-1.249 7.046-6.305-8.854-12.049-15.151-16.794-19.89-1.186-1.185-2.372-2.245-3.434-3.305-1.123-.997-2.122-1.933-3.121-2.743-.999-.873-1.936-1.621-2.81-2.37a335.067 335.067 0 0 0-2.559-1.995 209.052 209.052 0 0 1-2.81-2.244 24.937 24.937 0 0 1-.749-2.681 19.275 19.275 0 0 1-.374-2.432c-.063-.748-.063-1.31-.125-1.746v-.686c.562-1.933 1.81-4.739 4.37-8.604 1.81-2.619 2.372-5.861 2.123-9.103-.313-3.18-1.436-6.236-2.997-8.23-1.561-2.12-2.685-3.742-3.371-5.114-.687-1.309-1.124-2.307-1.374-3.18-.25-.872-.437-1.558-.812-2.306-.312-.749-.874-1.497-1.873-2.37-.998-.935-1.81-1.87-2.684-2.806-.812-.935-1.623-1.995-2.497-3.117-1.811-2.182-3.871-4.739-7.18-7.794-.812-.81-1.998-1.496-3.309-2.182-.687-.312-1.373-.686-2.122-.998a26.676 26.676 0 0 0-2.373-.873c-.811-.312-1.686-.56-2.56-.81-.874-.25-1.81-.5-2.684-.686-.937-.187-1.811-.437-2.747-.624-.937-.187-1.811-.311-2.747-.498-.874-.125-1.748-.312-2.622-.375-.874-.124-1.686-.187-2.497-.311a66.04 66.04 0 0 0-4.246-.374 394.891 394.891 0 0 0-3.995-.188s.686.437 1.81 1.185 2.622 1.808 4.121 3.118a35.56 35.56 0 0 1 2.31 2.12c.749.748 1.498 1.558 2.122 2.369.687.81 1.249 1.621 1.748 2.494.5.873.874 1.684 1.124 2.556.5 1.684 1.061 3.492 1.623 5.487.562 1.933 1.062 3.928 1.624 5.799a111.36 111.36 0 0 0 1.685 5.362c.624 1.621 1.249 3.055 1.936 4.115.749 1.06 1.311 1.995 1.935 2.806.624.81 1.249 1.559 1.998 2.37.749.81 1.56 1.62 2.559 2.618.999.998 2.123 2.12 3.497 3.616 1.872 1.996 4.307 4.989 8.865 7.919 1.748 1.185 3.309 2.432 4.495 3.616a38.547 38.547 0 0 1 1.623 1.746c.5.561.874 1.06 1.186 1.559v.062c.188.624.437 1.621.625 2.681.187 1.06.374 2.183.499 3.055-.562-.436-1.186-.935-1.873-1.434-.687-.498-1.373-1.06-2.123-1.62-1.498-1.123-3.184-2.308-4.994-3.555a170.35 170.35 0 0 0-12.486-7.793c-4.433-2.557-18.917-9.415-32.465-15.65-1.248-1.684-2.684-4.116-4.245-7.42-2.934-6.298-10.051-10.6-14.547-11.224-9.427-1.309-8.615-4.302-13.048-4.426-4.432-.125-7.928-2.058-15.171-3.243-7.242-1.184-21.663 10.226-21.663 10.226s10.301 1.247 15.608 6.173c5.369 4.925 13.11 12.22 17.98 13.904 4.87 1.683 6.805 1.683 14.546 1.933 2.685.062 6.556.436 11.363-1.123a28.194 28.194 0 0 1 7.991-1.434c6.68 3.492 12.112 6.36 12.611 6.61 1.748.873 3.621 1.808 5.619 2.868 3.996 2.12 8.303 4.551 12.486 6.734 3.809 2.307 7.992 4.676 11.675 6.92-1.436-.436-3.309-.935-5.119-1.246-.874-.125-1.748-.25-2.56-.25s-1.498 0-2.06.187c-.937.25-1.936.187-2.935 0-.312-.561-1.061-1.372-2.122-2.307-.562-.436-1.186-.935-1.936-1.371-.749-.437-1.56-.936-2.434-1.372-3.559-1.746-8.491-3.055-13.798-2.681-1.498.124-2.809.25-3.933.374-1.124.124-2.123.25-2.997.374-1.748.25-3.059.499-4.12.935a9.259 9.259 0 0 0-3.059 1.684c-.999.748-2.06 1.808-3.434 3.242-1.373 1.434-3.246 2.806-5.307 4.115-.999.686-2.122 1.372-3.184 2.058a136.156 136.156 0 0 0-3.121 2.057c-4.121 2.744-7.43 5.487-8.241 7.67-.125.373.374.685 1.248.872.437.125.999.187 1.561.25.562.062 1.249.124 1.936.187 2.747.25 5.931.56 7.179.997.25.063.562.125.937.187.374 0 .749.063 1.123.125.875 0 1.811 0 2.872-.062.562 0 1.124-.063 1.686-.125.562 0 1.186-.125 1.81-.187 1.249-.125 2.56-.312 3.871-.436 2.747-.312 5.494-.624 7.867-.873a152.61 152.61 0 0 0 3.433-.374c.999-.125 1.936-.25 2.685-.375 2.872-.56 6.68-2.057 10.301-4.364 3.684-2.307 7.18-5.487 9.24-9.602 3.871-.187 8.366 2.307 9.677 2.68 1.436.437 5.431.188 6.805.126a64.699 64.699 0 0 1 3.371 2.182c.999.686 1.935 1.31 2.685 1.87 4.058 2.93 8.178 7.108 11.674 10.974 3.496 3.866 6.368 7.482 8.366 9.228.749.686 1.623 1.683 2.747 2.868.562.624 1.061 1.247 1.686 1.995.624.686 1.186 1.434 1.81 2.245-1.061-.436-2.122-.81-3.184-1.06-1.124-.25-2.435-.623-3.683-.935a252.722 252.722 0 0 1-3.434-.873c-.312-1.06-1.186-2.432-2.435-3.99a36.76 36.76 0 0 0-4.682-4.677c-3.621-2.993-7.804-5.424-10.489-5.736-1.498-.187-2.871-.187-4.12-.125-1.249.063-2.435.312-3.684.624-2.497.686-5.056 1.746-8.615 3.304-3.559 1.621-6.743 2.806-9.677 3.99-1.436.624-2.809 1.185-4.12 1.809a31.403 31.403 0 0 0-3.559 1.995c-1.061.748-2.185 1.31-3.184 1.746a33.86 33.86 0 0 1-2.685 1.06c-.811.25-1.435.374-1.872.499-.437.124-.687.124-.687.124s0 .125.187.312c.125.25.375.561.812.935.374.374.936.873 1.748 1.434.374.312.811.562 1.311.873.499.312 1.061.686 1.685 1.06 2.498 1.497 5.744 2.12 9.49 2.557 3.746.374 7.929.374 11.987.374 2.06 0 3.808.187 5.431.374 1.624.187 2.997.499 4.308.748 1.374.187 2.622.374 3.933.374a14.03 14.03 0 0 0 4.308-.686c5.869-1.745 12.611-5.237 14.422-7.295 2.31.624 4.62 1.31 5.993 1.56.812.124 1.998.56 3.309 1.184.624.312 1.311.623 2.06.997a56.88 56.88 0 0 1 1.998 1.123c3.371 4.676 6.555 9.914 8.741 13.717h.124c4.495 6.859 8.741 15.089 11.363 21.511-1.748-.811-4.308-1.871-5.557-2.494h-.062c-.375-.374-.812-.811-1.186-1.309-.437-.499-.874-.998-1.311-1.622-.437-.561-.874-1.247-1.311-1.932a24.937 24.937 0 0 1-1.249-2.183 17.122 17.122 0 0 0-1.623-2.618c-.562-.749-1.124-1.435-1.748-2.058a28.48 28.48 0 0 0-3.309-2.806c-.5-.374-.937-.748-1.311-1.06-2.123-1.746-3.621-2.743-5.057-3.616-1.436-.811-2.809-1.434-4.87-2.12-2.247-.686-5.868-.873-9.864-.624-3.871.187-8.116.749-11.425 1.247-1.685.25-3.621.562-5.556.873-.999.187-1.936.312-2.934.499-.937.187-1.873.374-2.747.561-1.749.312-3.309.686-4.433.873-1.124.25-1.748.374-1.748.374l.125.125c.125.062.249.187.437.312.374.312.936.686 1.623 1.184.749.437 1.561.998 2.622 1.497 1.061.499 2.248 1.06 3.559 1.559 5.431 1.933 9.739 5.112 12.548 7.045.5.312 1.062.624 1.624.936a14.89 14.89 0 0 0 1.748.81c1.061.499 2.31.998 3.808 1.684.749.374 1.561.748 2.435 1.247.874.498 1.873 1.06 2.934 1.745.812.499 1.811.998 3.059 1.372 1.249.437 2.685.748 4.183.998 3.059.499 6.555.499 9.802-.25 4.745-1.184 8.053-1.434 10.239-1.434h.187c.125 0 .312.063.562.125.437.125 1.061.312 1.81.561a19.747 19.747 0 0 1 4.807 2.494c.875 2.37 1.561 4.365 1.873 5.799.375 1.372 3.122 8.105 5.245 15.463 1.123 3.679 2.06 7.482 2.809 10.849.375 1.683.624 3.242.812 4.551.187 1.372.312 2.495.374 3.305.125 2.182.812 5.799 1.561 9.976-1.436-.997-3.621-2.431-4.994-3.741.499-.81.686-1.808.749-2.806.062-1.06 0-2.12-.125-3.18-.187-1.059-.375-2.057-.687-2.93-.25-.873-.562-1.559-.749-1.995-.25-.624-.812-1.559-1.498-2.557-.687-1.06-1.561-2.182-2.435-3.242-1.811-2.182-3.684-4.053-4.683-4.364-.998-.312-4.307-.811-7.866-1.372-3.559-.624-7.304-1.372-9.177-2.369-3.746-1.996-6.743-3.367-9.865-5.238-1.56-.935-3.433-1.683-4.932-2.182a29.213 29.213 0 0 0-2.622-.748s.312.561.812 1.434c.499.873 1.186 2.12 1.873 3.554 1.311 2.805 2.747 6.11 3.121 8.292.125.499.188 1.123.25 1.684.063.561.125 1.184.187 1.746 0 .623.125 1.184.188 1.808 0 .623.125 1.184.187 1.746.062.561.187 1.122.312 1.683.125.561.312 1.06.5 1.559.374.935.936 1.746 1.685 2.369 3.059 2.369 8.741 3.367 11.862 6.111 1.499 1.371 5.369 2.369 9.365 2.992 3.996.624 8.241.811 10.488.312.5-.125.999-.249 1.374-.499.812.998 1.748 2.183 2.497 3.118a49.797 49.797 0 0 1 1.249 1.621s2.185.998 3.746 2.806c.562 3.928.874 8.043.811 11.597 0 1.247-.187 2.806-.312 4.614-.062.873-.187 1.808-.25 2.806-.124.997-.187 1.995-.312 3.055-.437 4.177-.999 8.791-1.311 13.156-.562 4.178-.936 8.542-1.311 12.595-.187-1.31-.687-3.055-1.249-4.614-.561-1.559-1.311-2.993-2.122-3.679-.687-.623-1.124-1.434-1.374-2.369.437-.561.937-1.497 1.311-2.806.375-1.309.687-2.993.75-4.863.124-3.741-.625-8.355-3.184-12.658-.687-1.247-1.374-2.306-1.936-3.242-.562-.935-1.061-1.746-1.561-2.431-.936-1.434-1.685-2.432-2.559-3.243-1.686-1.621-3.559-2.494-7.554-3.865-1.998-.686-4.121-1.933-6.306-3.367-1.061-.686-2.185-1.497-3.309-2.245-1.061-.811-2.185-1.559-3.246-2.307-1.062-.748-2.123-1.496-3.122-2.182a31.163 31.163 0 0 0-2.934-1.808c-.937-.499-1.811-.936-2.622-1.247-.812-.312-1.561-.499-2.248-.562-.936 0-.437 2.557.25 5.55.187.748.374 1.496.562 2.307.187.748.312 1.558.499 2.244.312 1.434.5 2.681.562 3.43.063 1.309.687 3.117 1.686 5.175a84.535 84.535 0 0 0 1.685 3.367c.625 1.184 1.249 2.369 1.998 3.616 2.747 4.863 5.744 9.789 7.617 12.158a22.156 22.156 0 0 0 3.683 3.492c1.561 1.122 3.309 2.245 5.307 3.18 3.996 1.87 8.803 3.18 13.86 2.868.999 1.496 1.436 3.429 1.623 5.175.187 1.746.187 3.242.312 3.866.25 1.309 2.497 4.364 3.247 5.362-.125 1.309-.25 2.556-.437 3.679-.125 1.122-.313 2.12-.438 2.993-.811 4.614-2.622 9.976-4.432 14.714-.937 2.37-1.873 4.552-2.622 6.485-.812 1.933-1.374 3.554-1.686 4.739-.499 1.808-1.623 4.988-3.309 8.542-.187-.998-.374-2.058-.749-2.993-.749-1.995-1.623-4.614-2.185-6.36 1.686-1.621 3.434-5.736 4.433-10.101.998-4.364 1.123-8.916 0-11.098-1.249-2.557-2.623-4.24-4.495-5.861-1.873-1.621-4.246-3.055-7.555-5.051-3.309-1.995-6.118-3.99-8.678-5.736-2.622-1.808-4.994-3.305-7.429-4.365-2.497-1.059-4.308-2.494-5.556-3.616a13.385 13.385 0 0 1-1.374-1.434c-.312-.374-.437-.561-.437-.561s-.125.125-.25.374c-.187.249-.312.686-.562 1.247-.187.624-.437 1.372-.624 2.432a36.042 36.042 0 0 0-.499 3.803 14.104 14.104 0 0 0 0 2.307c0 .374.125.811.187 1.185 0 .374.125.81.25 1.184.187.811.437 1.622.749 2.432.25.811.624 1.621.999 2.494.187.374.374.811.562 1.247.187.437.437.811.624 1.247.437.811.874 1.684 1.374 2.494.936 1.684 2.06 3.305 3.121 4.926s1.873 3.117 2.435 4.489c.624 1.372 1.061 2.619 1.561 3.804.999 2.307 2.122 4.239 4.682 6.11 4.807 3.492 11.8 6.609 14.734 6.796.624 2.12 1.249 4.178 1.81 5.362.313.686.562 1.809.687 3.118.187 1.309.25 2.743.25 4.177-2.497 5.051-5.619 10.351-8.054 14.092l5.494 2.618c.437-.685.812-1.371 1.186-1.995.375-.686.75-1.309 1.124-1.995a122.266 122.266 0 0 0 2.06-3.741c1.686-.748 3.497-1.559 5.307-2.369a234.828 234.828 0 0 0 4.995-2.307c4.869 2.431 7.803 4.614 10.8 5.549 1.499.436 2.934.561 4.683.249.874-.187 1.748-.499 2.747-.935.998-.436 2.06-1.06 3.246-1.808 2.497-1.559 4.433-2.806 6.118-3.804a172.042 172.042 0 0 1 4.121-2.369 42.213 42.213 0 0 0 2.996-1.808c.874-.561 1.686-1.247 2.56-2.058.874-.873 1.686-2.057 2.435-3.491a46.416 46.416 0 0 0 2.185-4.926c.375-.873.749-1.808 1.124-2.743.374-.936.749-1.871 1.186-2.869.874-1.87 1.748-3.803 2.872-5.611 1.124-1.746 2.122-3.617 3.121-5.362.999-1.746 1.873-3.43 2.685-4.988 1.561-2.993 2.622-5.176 2.872-5.487.25-.312-2.81.499-6.743 1.621-1.998.561-4.183 1.247-6.305 1.87-2.123.624-4.246 1.31-5.931 1.933-3.372 1.185-5.994 3.242-8.429 5.549-1.248 1.123-2.497 2.307-3.808 3.492-1.373 1.185-2.747 2.307-4.37 3.305-3.247 2.057-7.305 3.928-10.738 5.487-.874.374-1.686.81-2.435 1.122l-2.123 1.06c-1.248.686-2.185 1.247-2.622 1.808-.375.436-.687 1.309-1.061 2.494-.188.561-.312 1.185-.437 1.871-.188.623-.312 1.371-.437 2.057-.25 1.372-.562 2.806-.812 4.115-.25 1.31-.437 2.37-.562 3.118-2.247.81-4.869 1.933-7.242 2.93 4.807-9.539 7.617-17.208 9.552-23.319 1.936-6.11 2.934-10.724 3.621-14.403l.063-.686Z"/></g><defs><clipPath id="a"><path fill="#fff" d="M0 0h512v418H0z"/></clipPath></defs></svg>