<svg width="93" height="50" fill="none" xmlns="http://www.w3.org/2000/svg"><path fill-rule="evenodd" clip-rule="evenodd" d="M13.462 10.753C8.12 13.151.26 17.969.26 24.765s7.86 11.606 13.21 14.012c9.946 4.47 22.23 6.136 33.038 6.136 10.809 0 23.085-1.666 33.038-6.136 5.343-2.398 13.203-7.216 13.203-14.012s-7.86-11.607-13.203-14.012c-9.946-4.47-22.229-6.137-33.038-6.137-10.809 0-23.092 1.667-33.037 6.137h-.008ZM0 24.765C0 38.262 20.82 49.21 46.5 49.21S93 38.262 93 24.765C93 11.267 72.18.32 46.5.32S0 11.26 0 24.765Z" fill="#E2000F"/><path fill-rule="evenodd" clip-rule="evenodd" d="M85.398 31.025c-1.215.072-2.56.05-3.868.05-2.59 0-4.589-.405-6.049-1.68-1.387-1.225-2.085-2.855-2.085-4.905 0-1.913.618-3.47 1.855-4.68 1.467-1.435 3.64-1.906 6.465-1.906 1.237 0 2.402-.044 3.647.014l-.058 3.174c-.856-.022-2.927-.037-3.847-.037-1.093 0-1.985.312-2.661.935-.683.623-1.029 1.42-1.029 2.384 0 .869.223 1.594.662 2.173.633.833 1.676 1.246 3.121 1.246.95 0 2.934.058 3.84.03v3.202h.007Zm-56.46-13.157h-.41v13.215h4.136V22.8l6.242 8.274h4.538V17.868h-4.51v8.302l-6.27-8.302h-3.726ZM72.591 31.09H60.53V17.875h11.923v3.115h-6.695v1.906h6.4v3.02h-6.4l-.015 1.87h6.832l.015 3.304Zm-13.42-10.1h-4.61v10.1h-5.228v-10.1h-4.61v-3.115h14.441v3.115h.007Zm-32.21 10.093h-5.416c0-3.898.072-13.208.072-13.208h5.344V31.09v-.008Zm-6.832-4.21c0 1.123-.367 2.043-1.093 2.775-1.108 1.108-2.949 1.42-5.567 1.42H7.638l.058-2.927c1.64.073 3.243 0 4.825 0 .849 0 1.446-.08 1.805-.246.36-.167.54-.392.54-.681 0-.34-.238-.594-.72-.754-.158-.05-.654-.166-1.502-.34-1.51-.305-2.582-.645-3.222-1.022-1.173-.695-1.755-1.753-1.755-3.173 0-1.16.446-2.101 1.345-2.833 1.194-.97 3.085-1.174 5.681-1.174l5.465-.029-.05 2.963c-1.258.008-3.581-.036-4.933-.036-.712 0-1.215.037-1.503.116-.496.13-.74.384-.74.775 0 .326.25.566.761.718.245.072.561.137.935.21 1.266.232 2.093.42 2.496.55.927.29 1.625.696 2.107 1.21.597.63.899 1.464.899 2.493v-.015Z" fill="#E2000F"/></svg>