<svg width="93" height="50" viewBox="0 0 93 50" fill="none" xmlns="http://www.w3.org/2000/svg">
<path fill-rule="evenodd" clip-rule="evenodd" d="M13.4624 10.753C8.11916 13.1511 0.258893 17.969 0.258893 24.7649C0.258893 31.5608 8.11916 36.3715 13.4696 38.7768C23.4154 43.247 35.6984 44.9134 46.5072 44.9134C57.316 44.9134 69.5918 43.247 79.5448 38.7768C84.888 36.3787 92.7483 31.5608 92.7483 24.7649C92.7483 17.969 84.888 13.1583 79.5448 10.753C69.599 6.28275 57.316 4.61639 46.5072 4.61639C35.6984 4.61639 23.4154 6.28275 13.4696 10.753H13.4624ZM0 24.7649C0 38.2624 20.8193 49.2097 46.5 49.2097C72.1807 49.2097 93 38.2624 93 24.7649C93 11.2674 72.1807 0.320068 46.5 0.320068C20.8193 0.320068 0 11.2601 0 24.7649Z" fill="#E2000F"/>
<path fill-rule="evenodd" clip-rule="evenodd" d="M85.3985 31.0246C84.1831 31.097 82.8383 31.0753 81.5295 31.0753C78.9406 31.0753 76.9413 30.6696 75.4815 29.3944C74.0935 28.17 73.3959 26.5399 73.3959 24.4895C73.3959 22.5768 74.0144 21.0192 75.2513 19.8092C76.7184 18.3747 78.8902 17.9038 81.7165 17.9038C82.9534 17.9038 84.1184 17.8603 85.3625 17.9183L85.305 21.0916C84.4492 21.0699 82.3781 21.0554 81.4576 21.0554C80.3645 21.0554 79.4727 21.3669 78.7967 21.99C78.1135 22.6131 77.7683 23.41 77.7683 24.3736C77.7683 25.243 77.9913 25.9675 78.43 26.5471C79.0628 27.3803 80.1056 27.7933 81.5511 27.7933C82.5003 27.7933 84.4852 27.8512 85.3913 27.8223V31.0246H85.3985ZM28.9383 17.8676H28.5284V31.0825H32.6635V22.8014L38.9057 31.0753H43.4435V17.8676H38.9345V26.1704L32.6635 17.8676H28.9383ZM72.5905 31.0898H60.5304V17.8748H72.4539V20.9902H65.7586V22.8956H72.159V25.9168H65.7586L65.7442 27.786H72.5761L72.5905 31.0898ZM59.1712 20.9902H54.5615V31.0898H49.3333V20.9902H44.7236V17.8748H59.164V20.9902H59.1712ZM26.9607 31.0825H25.2131H21.5455C21.5455 27.1847 21.6174 17.8748 21.6174 17.8748H26.9607V31.0898V31.0825ZM20.1288 26.8732C20.1288 27.9961 19.762 28.9163 19.0357 29.648C17.9282 30.7565 16.0872 31.0681 13.4695 31.0681H7.63721L7.69474 28.141C9.33439 28.2135 10.9381 28.141 12.5202 28.141C13.3688 28.141 13.9657 28.0614 14.3253 27.8947C14.6848 27.7281 14.8646 27.5035 14.8646 27.2137C14.8646 26.8732 14.6273 26.6196 14.1455 26.4602C13.9873 26.4095 13.4911 26.2936 12.6425 26.1197C11.1323 25.8154 10.0607 25.4749 9.42069 25.0981C8.24848 24.4026 7.66597 23.3448 7.66597 21.9248C7.66597 20.7656 8.11184 19.8237 9.01078 19.092C10.2046 18.1211 12.0959 17.9183 14.692 17.9183L20.1575 17.8893L20.1072 20.8525C18.8487 20.8598 16.5259 20.8163 15.1739 20.8163C14.4619 20.8163 13.9585 20.8525 13.6708 20.9322C13.1746 21.0626 12.9301 21.3162 12.9301 21.7074C12.9301 22.0335 13.1818 22.2726 13.6924 22.4247C13.9369 22.4971 14.2534 22.5624 14.6273 22.6348C15.893 22.8666 16.72 23.055 17.1227 23.1854C18.0504 23.4752 18.748 23.881 19.2298 24.3954C19.8267 25.0257 20.1288 25.8589 20.1288 26.8877V26.8732Z" fill="#E2000F"/>
</svg>
