<svg version="1.0" xmlns="http://www.w3.org/2000/svg"
 width="93" height="50" viewBox="0 0 93 50"
 preserveAspectRatio="none">

<g transform="translate(0.000000,50.000000) scale(0.100000,-0.100000)"
fill="#000000" stroke="none">
<path d="M360 481 c-78 -11 -167 -39 -223 -69 -48 -26 -117 -92 -117 -113 0
-6 12 4 26 21 34 39 101 74 201 102 63 17 104 21 218 21 200 0 334 -37 414
-115 20 -20 30 -25 23 -13 -32 60 -128 119 -244 149 -71 18 -225 27 -298 17z"/>
<path d="M96 307 c-32 -23 -16 -54 39 -72 21 -8 18 -9 -27 -19 -45 -10 -32
-26 22 -26 38 0 52 4 60 19 14 28 2 51 -31 58 -40 8 -36 23 6 23 24 0 35 5 35
15 0 19 -78 21 -104 2z"/>
<path d="M220 278 c0 -24 -3 -53 -6 -65 -6 -20 -3 -23 25 -23 l31 0 0 65 c0
63 -1 65 -25 65 -23 0 -25 -4 -25 -42z"/>
<path d="M287 313 c-4 -3 -7 -33 -7 -65 0 -51 2 -58 19 -58 16 0 20 8 23 43
l3 42 30 -42 c20 -28 38 -43 53 -43 21 0 22 4 22 65 0 58 -2 65 -19 65 -16 0
-20 -8 -23 -42 l-3 -43 -29 43 c-26 39 -53 52 -69 35z"/>
<path d="M450 305 c0 -8 9 -15 20 -15 17 0 20 -7 20 -50 0 -47 2 -50 25 -50
23 0 25 3 25 50 0 47 2 50 25 50 16 0 25 6 25 15 0 12 -14 15 -70 15 -56 0
-70 -3 -70 -15z"/>
<path d="M610 255 l0 -65 55 0 c42 0 55 3 55 15 0 10 -11 15 -35 15 -19 0 -35
5 -35 10 0 6 16 10 35 10 24 0 35 5 35 15 0 10 -11 15 -35 15 -19 0 -35 5 -35
10 0 6 16 10 35 10 24 0 35 5 35 15 0 12 -13 15 -55 15 l-55 0 0 -65z"/>
<path d="M755 295 c-30 -29 -31 -45 -4 -79 16 -20 29 -26 60 -26 28 0 39 4 39
15 0 10 -10 15 -30 15 -18 0 -33 7 -39 18 -14 27 5 52 39 52 20 0 30 5 30 15
0 26 -67 19 -95 -10z"/>
<path d="M28 184 c15 -29 75 -80 120 -103 90 -46 182 -65 312 -65 73 -1 148 5
180 13 119 30 230 96 262 156 8 14 4 13 -14 -6 -76 -81 -212 -121 -413 -123
-201 -1 -330 33 -418 112 -27 25 -36 30 -29 16z"/>
</g>
</svg>
