<svg width="274" height="70" viewBox="0 0 274 70" fill="none" xmlns="http://www.w3.org/2000/svg">
<rect width="274" height="70" rx="10" fill="white"/>
<path d="M125.681 42.3107H113.809L128.94 22.2718C129.289 21.8058 129.173 21.165 128.765 20.8738C128.591 20.7573 128.358 20.699 128.183 20.699H106.244C104.323 20.699 102.752 22.2718 102.752 24.1942C102.752 26.1165 104.323 27.6893 106.244 27.6893H116.079L100.89 47.7282C100.54 48.1942 100.657 48.7767 101.064 49.1262C101.239 49.301 101.472 49.3592 101.704 49.301H125.623C127.543 49.1845 129.056 47.5534 128.94 45.6311C128.882 43.8252 127.427 42.4272 125.681 42.3107ZM202.15 20.6408C200.23 20.6408 198.658 22.2136 198.658 24.1359V35.9029L179.745 20.8738C179.337 20.5243 178.697 20.5825 178.348 21.0485C178.173 21.2233 178.115 21.4563 178.115 21.6893V45.8058C178.115 47.7282 179.687 49.301 181.607 49.301C183.527 49.301 185.099 47.7282 185.099 45.8058V34.0971L204.012 49.1262C204.478 49.4757 205.118 49.4175 205.467 48.9515C205.642 48.7767 205.7 48.5437 205.7 48.3107V24.1942C205.642 22.2136 204.07 20.6408 202.15 20.6408ZM152.102 42.9515C144.129 42.9515 138.135 38.7573 138.135 34.9709C138.135 31.1845 144.129 26.9903 152.102 26.9903C160.075 26.9903 166.069 31.1845 166.069 34.9709C166.069 38.7573 160.133 42.9515 152.102 42.9515ZM152.102 20C140.521 20 131.151 26.699 131.151 34.9709C131.151 43.2427 140.521 49.9417 152.102 49.9417C163.683 49.9417 173.052 43.2427 173.052 34.9709C173.052 26.699 163.683 20 152.102 20ZM83.3145 43.0097C78.8916 43.0097 75.3417 39.4563 75.3417 35.0291C75.3417 30.6019 78.8916 27.0485 83.3145 27.0485C87.7373 27.0485 91.2873 30.6019 91.2873 35.0291C91.2873 39.3981 87.7373 42.9515 83.3145 43.0097ZM83.3145 20C74.9925 20 68.3 26.699 68.3 34.9709C68.3 43.2427 74.9925 49.9417 83.2563 50C91.5201 50 98.2126 43.301 98.2708 35.0291C98.2708 26.699 91.5783 20 83.3145 20Z" fill="#005BFF"/>
</svg>
