<svg width="138" height="30" viewBox="0 0 138 30" fill="none" xmlns="http://www.w3.org/2000/svg">
<path d="M57.6809 22.3107H45.809L60.9399 2.27184C61.2891 1.80583 61.1727 1.16505 60.7653 0.873786C60.5907 0.757282 60.3579 0.699029 60.1833 0.699029H38.2436C36.3231 0.699029 34.7518 2.27184 34.7518 4.19417C34.7518 6.11651 36.3231 7.68932 38.2436 7.68932H48.0787L32.8896 27.7282C32.5404 28.1942 32.6568 28.7767 33.0642 29.1262C33.2388 29.301 33.4715 29.3592 33.7043 29.301H57.6227C59.5432 29.1845 61.0563 27.5534 60.9399 25.6311C60.8817 23.8252 59.4268 22.4272 57.6809 22.3107ZM134.15 0.640776C132.23 0.640776 130.658 2.21359 130.658 4.13592V15.9029L111.745 0.873786C111.337 0.524272 110.697 0.582524 110.348 1.04854C110.173 1.2233 110.115 1.45631 110.115 1.68932V25.8058C110.115 27.7282 111.687 29.301 113.607 29.301C115.527 29.301 117.099 27.7282 117.099 25.8058V14.0971L136.012 29.1262C136.478 29.4757 137.118 29.4175 137.467 28.9515C137.642 28.7767 137.7 28.5437 137.7 28.3107V4.19417C137.642 2.21359 136.071 0.640776 134.15 0.640776ZM84.1018 22.9515C76.129 22.9515 70.1348 18.7573 70.1348 14.9709C70.1348 11.1845 76.129 6.99029 84.1018 6.99029C92.0746 6.99029 98.0687 11.1845 98.0687 14.9709C98.0687 18.7573 92.1328 22.9515 84.1018 22.9515ZM84.1018 0C72.5208 0 63.1513 6.69903 63.1513 14.9709C63.1513 23.2427 72.5208 29.9417 84.1018 29.9417C95.6827 29.9417 105.052 23.2427 105.052 14.9709C105.052 6.69903 95.6827 0 84.1018 0ZM15.3145 23.0097C10.8916 23.0097 7.34168 19.4563 7.34168 15.0291C7.34168 10.6019 10.8916 7.04854 15.3145 7.04854C19.7374 7.04854 23.2873 10.6019 23.2873 15.0291C23.2873 19.3981 19.7374 22.9515 15.3145 23.0097ZM15.3145 0C6.99251 0 0.300003 6.69903 0.300003 14.9709C0.300003 23.2427 6.99251 29.9417 15.2563 30C23.5201 30 30.2126 23.301 30.2708 15.0291C30.2708 6.69903 23.5783 0 15.3145 0Z" fill="#005BFF"/>
</svg>
