<svg width="190" height="190" fill="none" xmlns="http://www.w3.org/2000/svg"><path fill-rule="evenodd" clip-rule="evenodd" d="m95.792 0 72.041 28.215v90.379l-.068.32c-4.845 22.517-16.632 35.661-30.174 45.351-6.595 4.72-13.626 8.634-20.36 12.383l-.331.185c-6.893 3.838-13.446 7.505-19.262 11.803L95.792 190l-1.847-1.364c-5.816-4.298-12.369-7.965-19.261-11.803l-.332-.185c-6.734-3.749-13.764-7.663-20.36-12.383-13.542-9.69-25.328-22.834-30.173-45.351l-.069-.32V28.215L95.792 0ZM29.947 32.42v85.517c4.491 20.491 15.125 32.345 27.662 41.316 6.307 4.514 13.075 8.282 19.9 12.082l.199.111c6.16 3.43 12.382 6.901 18.084 10.904 5.702-4.003 11.923-7.474 18.084-10.904l.199-.111c6.824-3.8 13.592-7.568 19.899-12.082 12.538-8.971 23.171-20.825 27.662-41.316V32.42L95.792 6.632 29.947 32.42Z" fill="url(#a)"/><path fill-rule="evenodd" clip-rule="evenodd" d="M95.5 35 141 52.82v57.081l-.043.202c-3.06 14.222-10.505 22.523-19.058 28.644-4.165 2.98-8.605 5.452-12.858 7.82l-.21.117c-4.353 2.424-8.491 4.74-12.165 7.454L95.5 155l-1.166-.862c-3.674-2.714-7.812-5.03-12.165-7.454l-.21-.117c-4.253-2.368-8.693-4.84-12.858-7.82-8.553-6.121-15.998-14.422-19.058-28.644l-.043-.202v-57.08L95.5 35ZM53.914 55.476v54.011c2.837 12.941 9.552 20.428 17.47 26.094 3.984 2.851 8.259 5.231 12.569 7.63l.126.07c3.89 2.167 7.82 4.359 11.421 6.887 3.601-2.528 7.53-4.72 11.421-6.887l.126-.07c4.31-2.399 8.585-4.779 12.568-7.63 7.919-5.666 14.634-13.153 17.471-26.094V55.476L95.5 39.189 53.914 55.476Z" fill="url(#b)"/><path d="M96 138.273c2.771-1.937 5.794-3.616 8.789-5.275l.096-.054c3.317-1.838 6.606-3.661 9.672-5.844 6.093-4.34 11.26-10.074 13.443-19.986V65.747L96 53.273v85Z" fill="#A400CD"/><defs><linearGradient id="a" x1="23.75" y1="190" x2="176.852" y2="182.432" gradientUnits="userSpaceOnUse"><stop stop-color="#A400CD"/><stop offset="1" stop-color="#D33883"/></linearGradient><linearGradient id="b" x1="50" y1="155" x2="146.696" y2="150.22" gradientUnits="userSpaceOnUse"><stop stop-color="#A400CD"/><stop offset="1" stop-color="#D33883"/></linearGradient></defs></svg>