<svg width="138" height="30" fill="currentColor" xmlns="http://www.w3.org/2000/svg"><path d="M57.68 22.31H45.81l15.13-20.038c.35-.466.234-1.107-.174-1.398a1.122 1.122 0 0 0-.582-.175h-21.94a3.504 3.504 0 0 0-3.491 3.495 3.504 3.504 0 0 0 3.492 3.495h9.835l-15.19 20.04c-.349.465-.232 1.048.175 1.397a.656.656 0 0 0 .64.175h23.919c1.92-.116 3.433-1.748 3.317-3.67-.058-1.806-1.513-3.204-3.26-3.32ZM134.15.64a3.504 3.504 0 0 0-3.492 3.496v11.767L111.745.873a.962.962 0 0 0-1.397.176c-.175.174-.233.407-.233.64v24.117a3.504 3.504 0 0 0 3.492 3.495 3.504 3.504 0 0 0 3.492-3.495V14.097l18.913 15.03c.466.349 1.106.29 1.455-.175.175-.175.233-.408.233-.641V4.194c-.058-1.98-1.629-3.553-3.55-3.553ZM84.102 22.952c-7.973 0-13.967-4.194-13.967-7.98 0-3.787 5.994-7.98 13.967-7.98 7.973 0 13.967 4.194 13.967 7.98 0 3.786-5.936 7.98-13.967 7.98Zm0-22.951c-11.581 0-20.95 6.699-20.95 14.97 0 8.273 9.369 14.972 20.95 14.972 11.58 0 20.95-6.7 20.95-14.971C105.052 6.699 95.682 0 84.102 0ZM15.314 23.01a7.952 7.952 0 0 1-7.972-7.98c0-4.428 3.55-7.981 7.973-7.981a7.952 7.952 0 0 1 7.972 7.98c0 4.37-3.55 7.922-7.972 7.98Zm0-23.01C6.994 0 .3 6.699.3 14.97.3 23.244 6.993 29.943 15.256 30c8.264 0 14.957-6.699 15.015-14.97C30.27 6.698 23.578 0 15.314 0Z" fill="#005BFF"/></svg>