<svg width="26" height="21" fill="none" xmlns="http://www.w3.org/2000/svg"><path fill-rule="evenodd" clip-rule="evenodd" d="m4.11 10.408-.087.767H.858A.862.862 0 0 1 0 10.308c0-.478.384-.865.858-.865H2.52a14.604 14.604 0 0 1 1.603-4.286C5.586 2.607 8.273 0 13 0s7.415 2.607 8.877 5.157a14.603 14.603 0 0 1 1.405 3.452c.085.317.15.598.198.834h1.662c.474 0 .858.387.858.866a.862.862 0 0 1-.858.866h-3.165l-.088-.767-.002-.015a8.056 8.056 0 0 0-.053-.336 12.425 12.425 0 0 0-.226-1 12.876 12.876 0 0 0-1.235-3.04C19.127 3.847 16.94 1.733 13 1.733c-3.94 0-6.127 2.114-7.373 4.286a12.875 12.875 0 0 0-1.235 3.039 12.435 12.435 0 0 0-.27 1.27l-.01.066v.013l-.001.002Zm5.796 8.228c1.21.477 2.401.632 3.094.632.693 0 1.884-.155 3.094-.632.955-.377 1.879-.936 2.588-1.736.317-.357.841-.486 1.245-.234.408.255.536.802.23 1.175-.963 1.175-2.225 1.932-3.426 2.406-1.426.562-2.835.753-3.731.753-.896 0-2.305-.191-3.73-.753-1.202-.474-2.464-1.23-3.426-2.405-.307-.374-.179-.921.23-1.176.403-.252.927-.123 1.243.234.71.8 1.634 1.36 2.589 1.736Z" fill="#fff"/><path d="M8.667 12.328c.478 0 .855-.395.983-.857.39-1.41 1.725-2.474 3.35-2.474s2.96 1.063 3.35 2.474c.128.462.505.857.983.857.479 0 .875-.391.792-.863-.422-2.402-2.576-4.2-5.125-4.2-2.55 0-4.703 1.798-5.125 4.2-.083.472.313.863.792.863Z" fill="#fff"/></svg>