<svg width="274" height="70" fill="none" xmlns="http://www.w3.org/2000/svg"><rect width="274" height="70" rx="10" fill="#fff"/><path d="M125.681 42.31h-11.872l15.131-20.038c.349-.466.233-1.107-.175-1.398a1.12 1.12 0 0 0-.582-.175h-21.939a3.504 3.504 0 0 0-3.492 3.495 3.504 3.504 0 0 0 3.492 3.495h9.835L100.89 47.73c-.35.465-.233 1.048.174 1.397.175.175.408.233.64.175h23.919c1.92-.117 3.433-1.748 3.317-3.67-.058-1.806-1.513-3.204-3.259-3.32Zm76.469-21.67a3.504 3.504 0 0 0-3.492 3.496v11.767l-18.913-15.03a.962.962 0 0 0-1.397.175c-.175.175-.233.408-.233.641v24.117a3.504 3.504 0 0 0 3.492 3.495 3.504 3.504 0 0 0 3.492-3.495V34.097l18.913 15.03c.466.349 1.106.29 1.455-.175.175-.175.233-.408.233-.641V24.194c-.058-1.98-1.63-3.553-3.55-3.553Zm-50.048 22.312c-7.973 0-13.967-4.195-13.967-7.981 0-3.786 5.994-7.98 13.967-7.98 7.973 0 13.967 4.194 13.967 7.98 0 3.786-5.936 7.98-13.967 7.98Zm0-22.952c-11.581 0-20.951 6.699-20.951 14.97 0 8.273 9.37 14.972 20.951 14.972 11.581 0 20.95-6.7 20.95-14.971 0-8.272-9.369-14.971-20.95-14.971ZM83.314 43.01a7.952 7.952 0 0 1-7.972-7.98c0-4.428 3.55-7.982 7.972-7.982a7.952 7.952 0 0 1 7.973 7.981c0 4.37-3.55 7.922-7.973 7.98Zm0-23.01C74.993 20 68.3 26.699 68.3 34.97c0 8.273 6.693 14.972 14.956 15.03 8.264 0 14.957-6.699 15.015-14.97 0-8.331-6.693-15.03-14.957-15.03Z" fill="#005BFF"/></svg>